PathFileType	4	(X/Y/Z)	E:\MaartenAfschrift\ProcessCardiffData\Gait_Perturbation\osimData\Patient9\Static.trc
DataRate	CameraRate	NumFrames	NumMarkers	Units	OrigDataRate	OrigDataStartFrame	OrigNumFrames
200.000000	200.000000	7	56	m	200.000000	1	1523
Frame#	Times	LFHD			RFHD			LBHD			RBHD			C7			CLAV			LSHO			LUA1			LELB			LLA1			LWRA			LWRB			LFIN			RSHO			RUA1			RELB			RLA1			RWRA			RWRB			RFIN			LASI			RASI			RPSI			LPSI			LTHI			LTHI2			LTHI3			LKNE			LKNEmed			LTIB			LTIB2			LTIB3			LANK			LANKmed			LHEE			LTOE			LLatFoot			RTHI			RTHI2			RTHI3			RKNE			RKNEmed			RTIB			RTIB2			RTIB3			RANK			RANKmed			RHEE			RTOE			RLatFoot			Unlabeled50			Unlabeled51			Unlabeled52			*53			*54			*55
		X1	Y1	Z1	X2	Y2	Z2	X3	Y3	Z3	X4	Y4	Z4	X5	Y5	Z5	X6	Y6	Z6	X7	Y7	Z7	X8	Y8	Z8	X9	Y9	Z9	X10	Y10	Z10	X11	Y11	Z11	X12	Y12	Z12	X13	Y13	Z13	X14	Y14	Z14	X15	Y15	Z15	X16	Y16	Z16	X17	Y17	Z17	X18	Y18	Z18	X19	Y19	Z19	X20	Y20	Z20	X21	Y21	Z21	X22	Y22	Z22	X23	Y23	Z23	X24	Y24	Z24	X25	Y25	Z25	X26	Y26	Z26	X27	Y27	Z27	X28	Y28	Z28	X29	Y29	Z29	X30	Y30	Z30	X31	Y31	Z31	X32	Y32	Z32	X33	Y33	Z33	X34	Y34	Z34	X35	Y35	Z35	X36	Y36	Z36	X37	Y37	Z37	X38	Y38	Z38	X39	Y39	Z39	X40	Y40	Z40	X41	Y41	Z41	X42	Y42	Z42	X43	Y43	Z43	X44	Y44	Z44	X45	Y45	Z45	X46	Y46	Z46	X47	Y47	Z47	X48	Y48	Z48	X49	Y49	Z49	X50	Y50	Z50	X51	Y51	Z51	X52	Y52	Z52	X53	Y53	Z53	X54	Y54	Z54	X55	Y55	Z55	X56	Y56	Z56

1	0.005	0.0017637	1.5718	-0.058472	0.1036	1.6162	0.035894	-0.11571	1.5686	0.03522	-0.0016231	1.5761	0.13178	-0.071645	1.4508	0.02718	0.045542	1.3682	0.032224	0.015425	1.3804	-0.15748	0.01949	1.207	-0.20682	0.018521	1.0977	-0.21621	0.057348	1.0074	-0.20739	0.077377	0.89009	-0.15643	0.020557	0.87427	-0.19871	0.069445	0.82833	-0.20155	0.017892	1.3932	0.22467	0.025008	1.2201	0.28151	0.018226	1.1089	0.29978	0.060313	1.0048	0.29758	0.099224	0.89999	0.25182	0.037908	0.8832	0.28441	0.082188	0.85006	0.29269	0.11469	0.91047	-0.059	0.1233	0.91061	0.14837	-0.11142	0.94825	0.084876	-0.11065	0.95673	0.015041	0.064475	0.65201	-0.12553	-0.0089417	0.65659	-0.13713	0.026358	0.60821	-0.12744	0.0091482	0.48257	-0.098944	0.020458	0.47112	0.009094	-0.0056832	0.27378	-0.12738	-0.060688	0.27365	-0.13179	-0.031443	0.22624	-0.13008	-0.045447	0.11016	-0.12344	-0.014006	0.1083	-0.046525	-0.1008	0.058456	-0.066072	0.11136	0.071027	-0.12488	0.014676	0.045521	-0.16827	0.078065	0.67491	0.21978	0.01889	0.66989	0.24203	0.048255	0.62606	0.22324	0.011359	0.4922	0.19824	0.0052931	0.47694	0.085483	-0.022526	0.25837	0.23232	-0.085186	0.25976	0.23634	-0.057925	0.21895	0.2349	-0.065618	0.11326	0.22109	-0.034873	0.10864	0.14416	-0.12001	0.051953	0.17338	0.093555	0.064005	0.19767	-0.0018586	0.041803	0.25984	0.38423	0.04394	-0.6512	-0.45124	0.032507	0.6224	0.24353	0.045456	0.60237	-0.41866	0.036342	-0.63401	0	0	0	0	0	0
2	0.01	0.0018816	1.5718	-0.058431	0.10376	1.6161	0.035889	-0.11556	1.5687	0.035272	-0.00148	1.5761	0.13178	-0.071596	1.4508	0.027223	0.045502	1.3682	0.032229	0.0154	1.3804	-0.15743	0.019585	1.207	-0.20675	0.018686	1.0977	-0.21616	0.057537	1.0075	-0.20731	0.0776	0.89016	-0.15637	0.02084	0.87422	-0.19863	0.069743	0.82838	-0.20145	0.017863	1.3931	0.22467	0.025084	1.22	0.28153	0.018357	1.1089	0.29979	0.060417	1.0047	0.29753	0.099274	0.89997	0.25169	0.037999	0.88318	0.28441	0.082344	0.85009	0.29264	0.11469	0.91047	-0.058978	0.12329	0.91062	0.14837	-0.11144	0.94824	0.084914	-0.11059	0.95672	0.01509	0.064427	0.65202	-0.12552	-0.0089717	0.65657	-0.1371	0.026303	0.6082	-0.12744	0.0091332	0.48257	-0.098914	0.02046	0.47111	0.0091179	-0.005724	0.27377	-0.12739	-0.060653	0.27365	-0.13175	-0.031432	0.22626	-0.13008	-0.045605	0.11018	-0.1233	-0.014027	0.10831	-0.04652	-0.10059	0.058303	-0.065866	0.11134	0.07105	-0.12484	0.01433	0.045601	-0.16825	0.078032	0.67493	0.21985	0.018898	0.66988	0.24204	0.048242	0.62604	0.22329	0.011374	0.49221	0.19824	0.0053158	0.47693	0.085509	-0.022549	0.25837	0.23234	-0.08571	0.2599	0.23731	-0.057933	0.21897	0.23491	-0.065702	0.11328	0.2211	-0.034818	0.10866	0.14418	-0.12001	0.051942	0.17338	0.093559	0.063999	0.19768	-0.0014888	0.041656	0.25974	0.38421	0.043987	-0.65112	-0.45089	0.032413	0.62218	0.24343	0.045458	0.60237	-0.41797	0.035624	-0.63484	0	0	0	0	0	0
3	0.015	0.0020305	1.5718	-0.058391	0.10394	1.616	0.035902	-0.11546	1.5688	0.035342	-0.0012785	1.5761	0.13182	-0.071575	1.4508	0.027305	0.045474	1.3682	0.032243	0.015411	1.3804	-0.15741	0.01966	1.207	-0.20669	0.018821	1.0977	-0.21613	0.057759	1.0075	-0.2072	0.0782	0.89027	-0.15629	0.020009	0.8742	-0.19961	0.070047	0.8284	-0.20138	0.017893	1.3931	0.22468	0.025186	1.2201	0.28154	0.018482	1.1089	0.29983	0.060555	1.0047	0.29748	0.099317	0.89995	0.25158	0.038028	0.88316	0.28452	0.082453	0.85007	0.29259	0.11466	0.91045	-0.058972	0.12332	0.9106	0.14839	-0.11146	0.94824	0.084982	-0.11062	0.95673	0.015134	0.064385	0.65201	-0.12548	-0.0090196	0.65658	-0.1371	0.026271	0.60819	-0.12742	0.0090982	0.48256	-0.098924	0.020421	0.47111	0.0091332	-0.0057278	0.27379	-0.12736	-0.060806	0.27366	-0.13182	-0.031467	0.22625	-0.13006	-0.045605	0.11019	-0.12332	-0.014035	0.10831	-0.046511	-0.10059	0.058311	-0.065855	0.11136	0.071067	-0.12485	0.014651	0.045532	-0.16822	0.078046	0.67491	0.21985	0.018883	0.66989	0.24204	0.048222	0.62603	0.2233	0.011403	0.49222	0.19825	0.0052824	0.47694	0.085496	-0.022511	0.25836	0.23233	-0.085798	0.2599	0.23747	-0.05797	0.21894	0.23495	-0.065588	0.11327	0.22106	-0.034791	0.10865	0.14418	-0.11997	0.051958	0.17334	0.093583	0.064012	0.19767	-0.0014859	0.041661	0.25975	0.38397	0.044442	-0.6504	-0.4512	0.032453	0.62208	0.24345	0.045451	0.60238	-0.41729	0.035244	-0.63526	-0.3723	1.2849	-0.44508	0	0	0
4	0.02	0.0021308	1.5718	-0.058379	0.10412	1.6159	0.035909	-0.11531	1.5689	0.035398	-0.0011931	1.5761	0.1318	-0.07156	1.4508	0.02733	0.045485	1.3681	0.032263	0.01545	1.3804	-0.15734	0.01974	1.2069	-0.20664	0.018985	1.0977	-0.21606	0.05802	1.0075	-0.20709	0.078453	0.89032	-0.1562	0.020207	0.8742	-0.19958	0.070376	0.82843	-0.20129	0.017895	1.3931	0.2247	0.025271	1.22	0.28154	0.018635	1.1089	0.29981	0.060681	1.0047	0.29743	0.099352	0.89995	0.25147	0.038153	0.88314	0.28452	0.082603	0.85009	0.29255	0.11464	0.91045	-0.058954	0.1233	0.91061	0.14842	-0.11144	0.94823	0.084979	-0.11063	0.95673	0.015157	0.064377	0.65202	-0.12549	-0.0090923	0.65658	-0.13706	0.026276	0.60822	-0.12737	0.0090718	0.48256	-0.098918	0.020413	0.4711	0.009151	-0.0057277	0.27379	-0.12735	-0.060749	0.27365	-0.13179	-0.031477	0.22625	-0.13005	-0.045414	0.11018	-0.12347	-0.014034	0.10832	-0.046512	-0.10063	0.058275	-0.06585	0.1114	0.071081	-0.12487	0.01459	0.045471	-0.16844	0.078007	0.67489	0.21989	0.0189	0.66987	0.24207	0.048193	0.62602	0.22333	0.011356	0.49221	0.19829	0.005262	0.47694	0.085503	-0.022548	0.25837	0.23236	-0.085224	0.25977	0.23639	-0.057951	0.21894	0.23492	-0.065709	0.11325	0.22112	-0.034783	0.10866	0.14419	-0.11998	0.051926	0.17334	0.093603	0.064016	0.19764	-0.0015435	0.041678	0.25976	0.38425	0.044051	-0.65122	-0.45136	0.032513	0.6222	0.24342	0.045489	0.60238	-0.41789	0.035485	-0.63496	-0.37222	1.2849	-0.44511	0	0	0
5	0.025	0.0022585	1.5718	-0.058348	0.10433	1.6158	0.035936	-0.11518	1.569	0.035447	-0.0010509	1.576	0.13189	-0.071543	1.4508	0.027439	0.045476	1.3681	0.032286	0.015454	1.3804	-0.15728	0.01981	1.2069	-0.2066	0.019124	1.0977	-0.21599	0.058262	1.0075	-0.20697	0.078695	0.89037	-0.15607	0.020483	0.87417	-0.19949	0.070665	0.82847	-0.2012	0.017895	1.3931	0.22473	0.025348	1.22	0.28156	0.018745	1.1089	0.29986	0.060838	1.0047	0.29738	0.099414	0.8999	0.25136	0.038241	0.88313	0.28457	0.082712	0.85008	0.2925	0.11462	0.91046	-0.058945	0.12332	0.91058	0.14842	-0.11145	0.94825	0.085039	-0.11065	0.95672	0.015214	0.06429	0.65203	-0.12548	-0.0091166	0.65659	-0.13703	0.026216	0.6082	-0.12738	0.0090092	0.48257	-0.098909	0.020381	0.47111	0.0091649	-0.0057642	0.27379	-0.12735	-0.060868	0.27365	-0.13181	-0.031477	0.2263	-0.13007	-0.045441	0.11019	-0.12347	-0.014045	0.10831	-0.046522	-0.10063	0.058283	-0.065828	0.11131	0.071044	-0.12484	0.014591	0.045488	-0.16847	0.078057	0.67491	0.21986	0.018896	0.66986	0.2421	0.048222	0.62603	0.22334	0.011394	0.49222	0.19827	0.0052569	0.47693	0.085548	-0.022525	0.25836	0.23232	-0.085329	0.25981	0.23656	-0.057957	0.21895	0.23494	-0.065724	0.11328	0.22114	-0.034815	0.10866	0.14421	-0.12001	0.051928	0.17334	0.093587	0.063993	0.19765	-0.0015126	0.041675	0.25978	0.38418	0.043535	-0.65131	-0.45117	0.032506	0.62235	0.24346	0.04551	0.60238	-0.41793	0.035465	-0.63493	-0.37207	1.285	-0.44505	0	0	0
6	0.03	0.002388	1.5718	-0.05832	0.1045	1.6157	0.035937	-0.11506	1.5691	0.035514	-0.0008094	1.5761	0.13193	-0.071528	1.4508	0.02745	0.045473	1.3681	0.032308	0.015448	1.3804	-0.15724	0.019894	1.2069	-0.20655	0.019284	1.0977	-0.21593	0.0585	1.0076	-0.20686	0.078954	0.89043	-0.156	0.020733	0.87415	-0.19941	0.070997	0.82851	-0.20109	0.017909	1.3931	0.22475	0.025394	1.22	0.28156	0.01889	1.1088	0.29987	0.060965	1.0047	0.29733	0.099458	0.89989	0.25126	0.038328	0.88312	0.28457	0.082907	0.85013	0.2924	0.1146	0.91043	-0.058933	0.12332	0.91059	0.14843	-0.11148	0.94827	0.085084	-0.11065	0.95674	0.015248	0.064261	0.65204	-0.1255	-0.0091907	0.65659	-0.13702	0.026148	0.60822	-0.1274	0.0089957	0.48255	-0.098883	0.020375	0.47111	0.0091823	-0.0058236	0.27379	-0.12739	-0.060815	0.27363	-0.13176	-0.031509	0.22624	-0.13004	-0.045617	0.11018	-0.12331	-0.014032	0.10832	-0.04653	-0.1008	0.058469	-0.066077	0.1114	0.071083	-0.12485	0.014661	0.045523	-0.1686	0.078012	0.67488	0.2199	0.018904	0.66987	0.24212	0.048227	0.62602	0.22337	0.011344	0.4922	0.19831	0.0052247	0.47693	0.08553	-0.022512	0.25833	0.23232	-0.085253	0.25977	0.23656	-0.057961	0.21893	0.23494	-0.06576	0.11328	0.22116	-0.034837	0.10866	0.14416	-0.11997	0.051961	0.17334	0.093586	0.06399	0.19768	-0.0018516	0.041808	0.25982	0.38422	0.044067	-0.65085	-0.45102	0.032395	0.62223	0.24338	0.045476	0.60236	-0.41786	0.035459	-0.63498	0	0	0	0	0	0
7	0.035	0.0025097	1.5717	-0.058278	0.1047	1.6156	0.035957	-0.11491	1.5692	0.03557	-0.00061713	1.5761	0.13196	-0.071505	1.4509	0.027539	0.045448	1.3681	0.032335	0.015421	1.3804	-0.15727	0.019978	1.2069	-0.20649	0.019446	1.0977	-0.2159	0.058691	1.0076	-0.20673	0.078907	0.8904	-0.15588	0.021022	0.87416	-0.19938	0.071329	0.82856	-0.20095	0.017924	1.393	0.22477	0.025483	1.22	0.28157	0.019014	1.1088	0.29988	0.061112	1.0047	0.29729	0.09954	0.8999	0.25115	0.038501	0.88315	0.28458	0.083084	0.85013	0.29235	0.11457	0.91043	-0.058939	0.12334	0.91057	0.14845	-0.11147	0.94826	0.085108	-0.11066	0.95675	0.015293	0.064215	0.65205	-0.12551	-0.0092155	0.6566	-0.13699	0.026108	0.6082	-0.1274	0.0089389	0.48256	-0.098915	0.02034	0.4711	0.0091715	-0.0057861	0.2738	-0.12733	-0.060851	0.27364	-0.13177	-0.031518	0.22627	-0.13004	-0.0456	0.11017	-0.12329	-0.014064	0.10831	-0.04652	-0.10056	0.058312	-0.065874	0.11133	0.071033	-0.12484	0.014673	0.045534	-0.16837	0.07797	0.67489	0.21994	0.018876	0.66986	0.24212	0.048227	0.62601	0.22338	0.011338	0.4922	0.19831	0.0052135	0.47694	0.085562	-0.022477	0.25833	0.2323	-0.085475	0.2598	0.2367	-0.057959	0.21895	0.23495	-0.065764	0.11329	0.22118	-0.034782	0.10867	0.1442	-0.11999	0.051965	0.17334	0.093562	0.064	0.19766	-0.001524	0.041669	0.25978	0.38405	0.044578	-0.6503	-0.45132	0.03258	0.62245	0.24353	0.045494	0.60237	-0.41741	0.035267	-0.63508	0	0	0	0	0	0
